# xmcd CD database file
#
# Track frame offsets:
#	150
#	31779
#	62889
#	76262
#	100654
#	114978
#	150924
#	172366
#	201720
#	235788
#	260124
#	276234
#
# Disc length: 4057 seconds
#
# Revision: 0
# Processed by: cddbd v1.5.1PL0 Copyright (c) Steve Scherf et al.
# Submitted via: CDex 1.60beta1
#
DISCID=a30fd70c
DTITLE=Various Artist - Pure Latin Jazz
DYEAR=2004
DGENRE=Jazz
TTITLE0=Juan Pablo Torres - When Day Breaks
TTITLE1=Amadito Valdés - Guaguanco de los Barrios
TTITLE2=Jane Bunnet - Ochun
TTITLE3=Julio Barreto - Coming Home Baby
TTITLE4=Tensy Krismant - La Comparsa
TTITLE5=Juan Manuel Ceruto - A Puerto Padre
TTITLE6=Joseph Soto - Tornasol
TTITLE7=Sebastian Schunke - Mi Sueño Español
TTITLE8=Juan Pablo Torres - Moonlight Serenade
TTITLE9=Tony Perez - A la Antigua
TTITLE10=Jose "Pepe" Vera - Frenesi
TTITLE11=Michael Mossman - Iron and Blood
EXTD=YEAR: 2004
EXTT0=
EXTT1=
EXTT2=
EXTT3=
EXTT4=
EXTT5=
EXTT6=
EXTT7=
EXTT8=
EXTT9=
EXTT10=
EXTT11=
PLAYORDER=
